<?xml version="1.0" encoding="UTF-8"?>
<svg id="svg" version="1.1" width="553.4469946821324" height="519.9510503655554" viewBox="108.22224496910272 125.0507770696783 553.4469946821324 519.9510503655554" xmlns="http://www.w3.org/2000/svg" xmlns:xlink="http://www.w3.org/1999/xlink"><path d="M279.423 127.363 C 270.960 130.510,266.921 133.212,261.005 139.684 C 254.542 146.756,251.424 152.902,249.922 161.528 C 247.164 177.366,250.905 190.404,261.470 201.773 C 276.499 217.945,296.818 221.403,317.674 211.337 C 320.894 209.783,325.584 205.980,330.097 201.263 L 337.346 193.685 373.377 194.369 C 404.894 194.968,409.771 195.270,412.311 196.777 C 415.175 198.476,419.286 204.856,441.774 242.500 C 447.031 251.300,452.303 260.075,453.491 262.000 C 454.678 263.925,460.250 273.229,465.873 282.675 C 475.138 298.239,477.232 302.496,478.526 308.400 C 478.941 310.293,472.317 322.255,455.213 350.500 C 445.037 367.305,438.735 377.312,435.441 381.898 C 434.098 383.767,433.000 386.568,433.000 388.122 C 433.000 393.104,436.313 393.925,457.662 394.230 C 482.969 394.593,482.459 394.858,494.407 375.154 C 497.483 370.081,500.000 365.733,500.000 365.492 C 500.000 365.251,501.960 361.779,504.355 357.777 C 524.238 324.555,528.908 315.570,529.680 309.053 C 530.438 302.651,528.888 298.358,521.715 287.000 C 515.322 276.875,506.000 261.115,506.000 260.429 C 506.000 260.202,502.963 255.048,499.250 248.975 C 492.063 237.218,492.034 237.170,487.553 229.500 C 485.947 226.750,483.442 222.925,481.988 221.000 C 480.534 219.075,475.601 211.200,471.026 203.500 C 455.504 177.376,444.742 160.512,441.115 156.634 C 434.381 149.431,435.736 149.613,384.500 149.027 C 351.515 148.649,337.911 148.162,336.418 147.305 C 335.274 146.648,332.196 143.605,329.580 140.542 C 320.069 129.409,310.089 124.966,294.782 125.052 C 287.700 125.092,284.060 125.640,279.423 127.363 M303.571 151.893 C 310.977 155.257,315.981 163.407,315.994 172.128 C 316.022 189.992,292.170 198.249,279.311 184.828 C 275.198 180.535,274.000 177.211,274.000 170.092 C 274.000 165.989,274.671 163.037,276.314 159.907 C 280.902 151.169,293.695 147.408,303.571 151.893 M513.500 154.982 C 497.593 159.101,484.795 172.172,480.492 188.693 C 477.415 200.507,478.967 211.435,485.482 223.834 C 491.576 235.431,502.979 243.596,516.667 246.166 C 519.875 246.768,522.996 247.387,523.603 247.542 C 524.683 247.818,533.517 262.038,551.835 292.984 C 564.186 313.850,564.226 312.063,550.914 334.000 C 549.412 336.475,544.709 344.575,540.464 352.000 C 536.218 359.425,529.278 371.350,525.041 378.500 C 520.804 385.650,513.416 398.137,508.623 406.248 C 502.074 417.330,499.111 421.418,496.704 422.690 C 493.806 424.222,489.193 424.357,448.414 424.103 L 403.327 423.822 400.632 427.025 C 397.417 430.846,397.569 431.619,403.606 442.203 C 406.023 446.440,408.000 450.197,408.000 450.551 C 408.000 450.906,410.467 454.697,413.483 458.976 C 422.034 471.110,418.434 470.400,471.500 470.418 C 504.671 470.430,517.439 470.109,520.072 469.198 C 525.026 467.484,529.087 462.940,534.547 453.000 C 539.718 443.586,555.048 417.820,564.433 402.770 C 570.709 392.704,575.518 384.444,590.500 358.000 C 595.330 349.475,601.741 338.551,604.746 333.724 C 611.067 323.575,613.343 317.148,612.619 311.497 C 611.958 306.339,608.680 298.937,603.979 291.989 C 597.756 282.792,571.847 239.953,568.144 232.737 C 564.367 225.378,564.349 226.151,568.556 215.000 C 570.858 208.902,570.958 194.260,568.746 187.216 C 563.490 170.472,550.110 158.055,534.040 155.008 C 527.956 153.854,517.904 153.841,513.500 154.982 M530.707 180.506 C 541.801 183.800,549.070 197.845,544.784 207.703 C 539.581 219.670,527.374 224.222,515.500 218.623 C 506.791 214.516,504.000 209.956,504.000 199.836 C 504.000 189.949,508.184 184.020,517.591 180.573 C 522.692 178.704,524.607 178.694,530.707 180.506 M215.386 224.084 C 210.412 225.526,204.310 231.840,199.036 241.000 C 196.345 245.675,192.610 251.975,190.737 255.000 C 188.864 258.025,184.027 266.125,179.987 273.000 C 168.821 292.006,162.145 302.500,158.659 306.525 C 155.726 309.911,154.953 310.232,147.837 311.027 C 123.609 313.734,104.605 338.941,108.807 362.796 C 111.836 379.990,121.233 392.866,135.844 399.844 C 143.227 403.369,143.894 403.500,154.548 403.500 C 165.266 403.500,165.820 403.390,173.048 399.815 C 182.152 395.313,187.302 391.004,192.347 383.667 C 201.436 370.449,203.334 358.212,198.563 343.596 C 195.152 333.147,194.660 334.428,214.166 303.000 C 217.751 297.225,223.223 288.158,226.327 282.851 C 232.406 272.459,235.868 268.859,241.603 266.966 C 246.889 265.222,361.281 266.258,365.293 268.087 C 368.520 269.558,373.616 276.965,384.498 296.000 C 388.743 303.425,395.469 314.675,399.444 321.000 C 403.419 327.325,407.964 334.904,409.544 337.842 C 414.916 347.828,420.725 349.735,426.517 343.412 C 430.744 338.797,442.931 316.203,443.678 311.594 C 444.125 308.839,443.465 306.406,440.678 300.537 C 438.712 296.398,435.793 291.097,434.190 288.756 C 431.234 284.439,416.907 261.144,405.434 242.000 C 398.193 229.917,394.134 225.626,388.500 224.097 C 383.523 222.746,220.041 222.734,215.386 224.084 M252.500 297.795 C 247.597 300.151,246.416 301.507,241.000 311.000 C 238.646 315.125,236.146 319.175,235.443 320.000 C 234.740 320.825,231.035 326.900,227.209 333.500 C 223.384 340.100,216.709 351.362,212.377 358.528 C 208.045 365.693,203.418 373.568,202.097 376.028 C 200.775 378.487,196.904 385.225,193.495 391.000 C 190.087 396.775,183.786 407.800,179.494 415.500 C 175.201 423.200,169.256 433.686,166.281 438.803 C 160.041 449.536,158.168 456.434,159.847 462.500 C 160.456 464.700,164.269 472.125,168.320 479.000 C 172.372 485.875,179.639 498.250,184.470 506.500 C 189.300 514.750,194.843 524.200,196.786 527.500 C 207.380 545.487,206.946 543.306,202.452 555.977 C 196.228 573.523,200.574 591.057,214.278 603.688 C 220.775 609.677,225.792 612.576,233.952 615.054 C 249.654 619.823,266.271 615.560,278.887 603.527 C 298.432 584.884,297.727 554.806,277.301 535.843 C 270.119 529.175,264.303 526.475,251.801 524.005 L 246.102 522.879 241.224 514.190 C 236.725 506.175,232.123 498.598,217.117 474.500 C 211.921 466.157,211.514 465.062,211.529 459.500 C 211.547 453.008,212.928 450.055,226.962 426.500 C 230.239 421.000,236.833 409.525,241.616 401.000 C 246.398 392.475,253.325 380.325,257.009 374.000 C 260.693 367.675,265.527 359.349,267.751 355.498 C 269.975 351.647,272.629 347.773,273.647 346.889 C 278.057 343.067,280.953 342.891,327.688 343.613 C 369.034 344.252,373.093 344.169,375.438 342.633 C 376.853 341.706,378.000 340.005,378.000 338.835 C 378.000 337.670,375.589 332.843,372.642 328.108 C 369.696 323.374,364.818 315.450,361.803 310.500 C 353.784 297.336,353.105 297.000,334.515 297.000 C 326.161 297.000,305.190 296.747,287.913 296.437 C 258.325 295.906,256.268 295.985,252.500 297.795 M164.917 338.457 C 167.747 339.921,172.628 345.435,174.855 349.684 C 176.235 352.316,176.365 361.911,175.067 365.324 C 173.482 369.493,167.780 375.166,163.201 377.128 C 153.297 381.373,141.435 378.011,136.479 369.554 C 129.353 357.394,134.202 342.031,146.625 337.408 C 151.215 335.700,160.630 336.240,164.917 338.457 M602.324 369.387 C 596.363 371.326,585.665 377.496,582.875 380.603 C 581.569 382.059,579.535 384.291,578.356 385.564 C 577.177 386.837,576.464 388.131,576.773 388.439 C 577.081 388.748,576.782 389.000,576.108 389.000 C 575.434 389.000,575.160 389.450,575.500 390.000 C 575.840 390.550,575.615 391.000,575.000 391.000 C 574.385 391.000,574.167 391.461,574.515 392.025 C 574.864 392.588,574.617 392.926,573.967 392.775 C 573.258 392.610,572.619 394.099,572.370 396.500 C 572.141 398.700,571.536 401.742,571.025 403.260 C 568.841 409.756,568.835 417.346,571.010 425.000 C 572.182 429.125,573.385 433.503,573.683 434.730 C 574.082 436.368,570.752 442.867,561.131 459.230 C 544.639 487.279,540.434 493.590,535.721 497.368 L 531.943 500.396 472.526 500.331 L 413.110 500.265 408.305 497.883 C 404.263 495.878,402.594 494.070,397.795 486.500 C 390.810 475.479,378.409 455.032,367.774 437.000 C 358.169 420.714,356.703 419.000,352.383 419.000 C 349.340 419.000,348.615 419.745,341.911 429.750 C 333.590 442.167,328.000 453.220,328.000 457.254 C 328.000 460.980,330.206 466.093,335.226 474.000 C 337.496 477.575,340.511 482.402,341.926 484.727 C 349.128 496.556,361.375 516.380,368.500 527.742 C 375.725 539.264,376.984 540.742,381.500 543.000 L 386.500 545.500 468.879 545.783 C 561.522 546.102,558.978 546.275,564.955 539.258 C 568.498 535.098,581.936 513.675,588.325 502.000 C 590.582 497.875,595.337 489.775,598.891 484.000 C 602.445 478.225,606.864 471.025,608.711 468.001 C 610.559 464.976,612.688 461.884,613.443 461.128 C 614.198 460.373,618.696 459.182,623.438 458.482 C 634.072 456.911,641.380 453.377,648.514 446.357 C 661.297 433.777,665.102 414.943,658.438 397.238 C 654.144 385.831,647.027 378.215,635.072 372.235 C 628.071 368.734,627.034 368.505,617.072 368.274 C 610.238 368.115,605.023 368.508,602.324 369.387 M291.275 376.422 C 287.690 379.438,283.826 385.389,269.470 410.000 C 263.535 420.175,256.787 431.654,254.476 435.508 C 248.288 445.826,244.248 454.160,243.500 458.150 C 242.731 462.249,244.078 465.972,249.446 474.590 C 256.740 486.299,269.972 508.621,273.041 514.394 C 274.765 517.636,280.245 527.311,285.221 535.894 C 290.196 544.477,295.155 553.075,296.239 555.000 C 297.324 556.925,301.239 563.450,304.938 569.500 C 308.638 575.550,314.278 585.000,317.472 590.500 C 329.496 611.203,330.589 612.556,338.000 615.916 C 342.308 617.869,344.375 617.957,386.392 617.978 L 430.285 618.000 438.860 627.095 C 447.846 636.627,453.471 640.282,463.932 643.388 C 483.941 649.328,507.332 638.386,517.078 618.527 C 520.148 612.272,520.536 610.530,520.849 601.596 C 521.102 594.389,520.724 589.884,519.481 585.290 C 513.326 562.553,488.758 547.967,465.741 553.384 C 455.794 555.726,449.409 559.394,440.928 567.639 L 433.356 575.000 402.928 574.994 C 384.186 574.991,370.964 574.572,368.500 573.903 C 361.189 571.919,357.917 567.645,341.013 538.000 C 336.465 530.025,329.583 518.325,325.719 512.000 C 298.321 467.157,297.000 464.708,297.000 458.768 C 297.000 454.210,300.847 446.929,327.111 401.782 C 333.100 391.487,338.000 382.011,338.000 380.723 C 338.000 379.436,337.362 377.509,336.582 376.441 C 335.273 374.648,333.608 374.477,314.726 374.194 L 294.286 373.888 291.275 376.422 M626.742 395.507 C 635.885 400.908,639.650 413.832,634.751 423.000 C 631.113 429.808,625.688 433.146,617.285 433.748 C 609.368 434.314,604.134 432.325,599.712 427.069 C 594.052 420.343,593.366 408.142,598.285 401.693 C 605.075 392.791,617.553 390.078,626.742 395.507 M252.920 549.977 C 261.538 552.449,267.931 560.534,268.705 569.940 C 269.283 576.955,264.954 584.678,258.470 588.201 C 249.664 592.986,241.535 593.033,234.297 588.339 C 226.604 583.351,223.248 575.240,225.017 565.913 C 226.297 559.158,229.656 554.848,236.168 551.603 C 241.701 548.846,247.137 548.318,252.920 549.977 M485.435 580.266 C 487.599 581.495,490.950 584.702,492.881 587.393 C 503.081 601.605,492.768 620.000,474.602 620.000 C 467.459 620.000,458.070 613.805,455.351 607.298 C 452.082 599.475,455.029 587.251,461.252 582.820 C 468.587 577.598,478.828 576.516,485.435 580.266 " stroke="none" fill="#000000" fill-rule="evenodd"/></svg>